<svg width="26" height="26" viewBox="0 0 26 26" fill="none" xmlns="http://www.w3.org/2000/svg">
<path d="M4.97418 11.6012C4.36508 11.6012 3.81045 11.4526 3.31029 11.1555C2.81013 10.8584 2.41149 10.4597 2.11437 9.95959C1.81725 9.45448 1.66869 8.89738 1.66869 8.28828C1.66869 7.67917 1.81725 7.12454 2.11437 6.62439C2.41149 6.12423 2.81013 5.72559 3.31029 5.42847C3.81045 5.13135 4.36508 4.98279 4.97418 4.98279C5.58328 4.98279 6.13791 5.13135 6.63806 5.42847C7.13822 5.72559 7.53686 6.12423 7.83398 6.62439C8.1311 7.12454 8.27967 7.67917 8.27967 8.28828C8.27967 8.89738 8.1311 9.45448 7.83398 9.95959C7.53686 10.4597 7.13822 10.8584 6.63806 11.1555C6.13791 11.4526 5.58328 11.6012 4.97418 11.6012ZM4.97418 10.4498C5.37529 10.4498 5.73679 10.3533 6.05867 10.1601C6.38551 9.96702 6.64549 9.70704 6.83862 9.3802C7.0367 9.05337 7.13574 8.68939 7.13574 8.28828C7.13574 7.89211 7.0367 7.53061 6.83862 7.20378C6.64549 6.87694 6.38551 6.61696 6.05867 6.42383C5.73679 6.2307 5.37529 6.13414 4.97418 6.13414C4.57801 6.13414 4.21651 6.2307 3.88968 6.42383C3.56284 6.61696 3.30039 6.87694 3.1023 7.20378C2.90917 7.53061 2.81261 7.89211 2.81261 8.28828C2.81261 8.68939 2.90917 9.05337 3.1023 9.3802C3.30039 9.70704 3.56284 9.96702 3.88968 10.1601C4.21651 10.3533 4.57801 10.4498 4.97418 10.4498Z" fill="#303345"/>
<path d="M19.909 20.5817C18.8889 20.5817 18 20.3267 17.2423 19.8166C16.4896 19.3066 15.9053 18.6083 15.4893 17.7219C15.0733 16.8355 14.8653 15.8253 14.8653 14.6913C14.8653 13.5473 15.0758 12.5297 15.4967 11.6383C15.9226 10.747 16.5119 10.0487 17.2646 9.54362C18.0173 9.03356 18.8913 8.77853 19.8867 8.77853C20.6493 8.77853 21.3401 8.92709 21.9591 9.22421C22.5781 9.51638 23.0882 9.92988 23.4893 10.4647C23.8954 10.9946 24.1504 11.6136 24.2544 12.3217H22.9173C22.7787 11.6779 22.4444 11.1283 21.9146 10.6727C21.3896 10.2121 20.7211 9.98187 19.909 9.98187C19.181 9.98187 18.5373 10.18 17.9777 10.5761C17.4181 10.9673 16.9798 11.5145 16.6629 12.2177C16.3509 12.916 16.1949 13.7256 16.1949 14.6467C16.1949 15.5727 16.3485 16.3923 16.6555 17.1054C16.9625 17.8135 17.3933 18.3682 17.948 18.7693C18.5075 19.1704 19.1612 19.3709 19.909 19.3709C20.4141 19.3709 20.8746 19.2769 21.2906 19.0887C21.7115 18.8956 22.0631 18.6232 22.3454 18.2716C22.6326 17.92 22.8257 17.5016 22.9248 17.0163H24.2618C24.1628 17.7046 23.9177 18.3186 23.5264 18.8584C23.1402 19.3932 22.6376 19.8142 22.0185 20.1212C21.4045 20.4282 20.7013 20.5817 19.909 20.5817Z" fill="#303345"/>
</svg>
